<svg width="1820" height="1040" xmlns="http://www.w3.org/2000/svg" xmlns:xlink="http://www.w3.org/1999/xlink" overflow="hidden"><defs><clipPath id="clip0"><rect x="0" y="0" width="1820" height="1040"/></clipPath></defs><g clip-path="url(#clip0)"><rect x="0" y="0" width="1820" height="1040" fill="#FFFFFF"/><rect x="241" y="0" width="1579" height="1049" fill="#F7F9FC"/><path d="M1491.5 656.005C1491.5 649.651 1496.65 644.5 1503.01 644.5L1779.99 644.5C1786.35 644.5 1791.5 649.651 1791.5 656.005L1791.5 1007.99C1791.5 1014.35 1786.35 1019.5 1779.99 1019.5L1503.01 1019.5C1496.65 1019.5 1491.5 1014.35 1491.5 1007.99Z" stroke="#DAE3F3" stroke-width="0.333333" stroke-miterlimit="8" fill="#FFFFFF" fill-rule="evenodd"/><path d="M272.5 657.919C272.5 649.956 278.956 643.5 286.919 643.5L738.081 643.5C746.044 643.5 752.5 649.956 752.5 657.919L752.5 1005.08C752.5 1013.04 746.044 1019.5 738.081 1019.5L286.919 1019.5C278.956 1019.5 272.5 1013.04 272.5 1005.08Z" stroke="#DAE3F3" stroke-width="0.333333" stroke-miterlimit="8" fill="#FFFFFF" fill-rule="evenodd"/><path d="M1103.5 205.151C1103.5 196.507 1110.51 189.5 1119.15 189.5L1776.85 189.5C1785.49 189.5 1792.5 196.507 1792.5 205.151L1792.5 614.849C1792.5 623.493 1785.49 630.5 1776.85 630.5L1119.15 630.5C1110.51 630.5 1103.5 623.493 1103.5 614.849Z" stroke="#DAE3F3" stroke-width="0.333333" stroke-miterlimit="8" fill="#FFFFFF" fill-rule="evenodd"/><path d="M272.5 67.7955C272.5 65.4232 274.423 63.5001 276.795 63.5001L1788.2 63.5001C1790.58 63.5001 1792.5 65.4232 1792.5 67.7955L1792.5 171.205C1792.5 173.577 1790.58 175.5 1788.2 175.5L276.795 175.5C274.423 175.5 272.5 173.577 272.5 171.205Z" stroke="#DAE3F3" stroke-width="0.333333" stroke-miterlimit="8" fill="#FFFFFF" fill-rule="evenodd"/><path d="M272.5 201.667C272.5 194.395 278.395 188.5 285.667 188.5L1083.33 188.5C1090.6 188.5 1096.5 194.395 1096.5 201.667L1096.5 617.333C1096.5 624.605 1090.6 630.5 1083.33 630.5L285.667 630.5C278.395 630.5 272.5 624.605 272.5 617.333Z" stroke="#DAE3F3" stroke-width="0.333333" stroke-miterlimit="8" fill="#FFFFFF" fill-rule="evenodd"/><rect x="-9.50005" y="-11.5001" width="254" height="1072" stroke="#001F3F" stroke-width="1.33333" stroke-miterlimit="8" fill="#14202D"/><text fill="#475569" font-family="Calibri,Calibri_MSFontService,sans-serif" font-weight="700" font-size="16" transform="translate(82.3298 386)">GANHOS &amp;</text><text fill="#475569" font-family="Calibri,Calibri_MSFontService,sans-serif" font-weight="700" font-size="16" transform="translate(82.3298 405)">CRESCIMENTO</text><text fill="#475569" font-family="Calibri,Calibri_MSFontService,sans-serif" font-weight="700" font-size="16" transform="translate(82.3298 475)">LOGISTICA &amp;</text><text fill="#475569" font-family="Calibri,Calibri_MSFontService,sans-serif" font-weight="700" font-size="16" transform="translate(82.3298 494)">SATISFAÇÃO</text><text fill="#D9D9D9" font-family="Calibri,Calibri_MSFontService,sans-serif" font-weight="700" font-size="16" transform="translate(82.3298 570)">CLIENTES &amp;</text><text fill="#D9D9D9" font-family="Calibri,Calibri_MSFontService,sans-serif" font-weight="700" font-size="16" transform="translate(82.3298 589)">PARTNERS</text><text fill="#475569" font-family="Calibri,Calibri_MSFontService,sans-serif" font-weight="700" font-size="16" transform="translate(82.3298 664)">FORECAST &amp;</text><text fill="#475569" font-family="Calibri,Calibri_MSFontService,sans-serif" font-weight="700" font-size="16" transform="translate(82.3298 683)">SIMULAÇÃO</text><text fill="#D9D9D9" font-family="Calibri,Calibri_MSFontService,sans-serif" font-weight="700" font-size="26.6667" transform="translate(6.9747 33)">OLIST DASHBOARDS</text><rect x="31" y="389" width="6" height="16" fill="#475569"/><rect x="38" y="385" width="6" height="20" fill="#475569"/><rect x="45" y="387" width="6" height="18" fill="#475569"/><rect x="52" y="376" width="6" height="29" fill="#475569"/><path d="M31 478C31 470.82 36.8203 465 44 465 51.1797 465 57 470.82 57 478 57 485.18 51.1797 491 44 491 36.8203 491 31 485.18 31 478Z" fill="#475569" fill-rule="evenodd"/><path d="M37 475C37 473.895 37.8954 473 39 473 40.1046 473 41 473.895 41 475 41 476.105 40.1046 477 39 477 37.8954 477 37 476.105 37 475Z" fill="#14202D" fill-rule="evenodd"/><path d="M48 475C48 473.895 48.8954 473 50 473 51.1046 473 52 473.895 52 475 52 476.105 51.1046 477 50 477 48.8954 477 48 476.105 48 475Z" fill="#14202D" fill-rule="evenodd"/><path d="M50.9999 483C50.9999 485.209 48.0898 487 44.4999 487 40.9101 487 37.9999 485.209 37.9999 483 40.6923 485.209 45.7851 485.657 49.3749 484 49.9909 483.716 50.538 483.379 50.9999 483Z" fill="#14202D" fill-rule="evenodd"/><path d="M27 568.5C27 564.358 29.6863 561 33 561 36.3137 561 39 564.358 39 568.5 39 572.642 36.3137 576 33 576 29.6863 576 27 572.642 27 568.5Z" fill="#BFBFBF" fill-rule="evenodd"/><path d="M48 568C48 564.134 50.6863 561 54 561 57.3137 561 60 564.134 60 568 60 571.866 57.3137 575 54 575 50.6863 575 48 571.866 48 568Z" fill="#BFBFBF" fill-rule="evenodd"/><path d="M24 582.951C24 579.664 26.6643 577 29.951 577L36.049 577C39.3357 577 42 579.664 42 582.951L42 597.049C42 600.336 39.3357 603 36.049 603L29.951 603C26.6643 603 24 600.336 24 597.049Z" fill="#BFBFBF" fill-rule="evenodd"/><path d="M45 582.951C45 579.664 47.6643 577 50.951 577L57.049 577C60.3357 577 63 579.664 63 582.951L63 597.049C63 600.336 60.3357 603 57.049 603L50.951 603C47.6643 603 45 600.336 45 597.049Z" fill="#BFBFBF" fill-rule="evenodd"/><rect x="10" y="588" width="55" height="22" fill="#14202D"/><text fill="#001F3F" font-family="Calibri,Calibri_MSFontService,sans-serif" font-weight="700" font-size="16" transform="translate(350.933 84)">CLIENTES ÚNICOS</text><text fill="#001F3F" font-family="Calibri,Calibri_MSFontService,sans-serif" font-weight="700" font-size="16" transform="translate(869.72 84)">FREQUÊNCIA DE COMPRAS POR CLIENTE</text><text fill="#001F3F" font-family="Calibri,Calibri_MSFontService,sans-serif" font-weight="700" font-size="16" transform="translate(1512.15 84)">% DE CLIENTES COM RECOMPRA</text><text fill="#001F3F" font-family="Calibri,Calibri_MSFontService,sans-serif" font-weight="700" font-size="16" transform="translate(597.68 213)">FIDELIDADE DOS CLIENTES</text><text fill="#001F3F" font-family="Calibri,Calibri_MSFontService,sans-serif" font-weight="700" font-size="16" transform="translate(1179.04 213)">CATEGORIAS MAIS VENDIDAS</text><text fill="#001F3F" font-family="Calibri,Calibri_MSFontService,sans-serif" font-weight="700" font-size="16" transform="translate(1248.65 232)">(TODOS)</text><text fill="#001F3F" font-family="Calibri,Calibri_MSFontService,sans-serif" font-weight="700" font-size="16" transform="translate(1527.13 667)">TOP TENDÊNCIA DE CRESCIMENTO</text><text fill="#001F3F" font-family="Calibri,Calibri_MSFontService,sans-serif" font-weight="700" font-size="16" transform="translate(357.52 667)">TOP SELLERS POR FATURAMENTO E DEMANDA</text><path d="M761.5 658.882C761.5 650.939 767.939 644.5 775.882 644.5L1466.12 644.5C1474.06 644.5 1480.5 650.939 1480.5 658.882L1480.5 1005.12C1480.5 1013.06 1474.06 1019.5 1466.12 1019.5L775.882 1019.5C767.939 1019.5 761.5 1013.06 761.5 1005.12Z" stroke="#DAE3F3" stroke-width="0.333333" stroke-miterlimit="8" fill="#FFFFFF" fill-rule="evenodd"/><text fill="#001F3F" font-family="Calibri,Calibri_MSFontService,sans-serif" font-weight="700" font-size="16" transform="translate(975.216 667)">SELLERS COM TENDÊNCIA DE CRESCIMENTO</text><rect x="0" y="0" width="152" height="2" fill="#29CB6D" transform="matrix(1 0 0 -1 41 603)"/><text fill="#001F3F" font-family="Calibri,Calibri_MSFontService,sans-serif" font-weight="700" font-size="16" transform="translate(1515.52 851)">MENOR TENDÊNCIA DE CRESCIMENTO</text><text fill="#001F3F" font-family="Calibri,Calibri_MSFontService,sans-serif" font-weight="700" font-size="16" transform="translate(1521.04 213)">CATEGORIAS MAIS VENDIDAS</text><text fill="#001F3F" font-family="Calibri,Calibri_MSFontService,sans-serif" font-weight="700" font-size="16" transform="translate(1534.02 232)">(CLIENTES RECORRENTES)</text><path d="M0 12.6102 3.7006 0 18.503 0 14.8024 12.6102Z" fill="#475569" fill-rule="evenodd" transform="matrix(-0.557522 0.830162 0.830162 0.557522 40.7388 651.943)"/><path d="M56.8757 668.669 56.93 684.503 43.4094 687.586 43.3552 671.751Z" fill="#475569" fill-rule="evenodd"/><path d="M43 687 30 683.2 30 668 43 671.8Z" fill="#475569" fill-rule="evenodd"/><text fill="#001F3F" font-family="Calibri,Calibri_MSFontService,sans-serif" font-weight="700" font-size="24" transform="translate(273.948 35)">CLIENTES &amp; PARTNERS</text></g></svg>