<svg width="1820" height="1040" xmlns="http://www.w3.org/2000/svg" xmlns:xlink="http://www.w3.org/1999/xlink" overflow="hidden"><defs><clipPath id="clip0"><rect x="0" y="0" width="1820" height="1040"/></clipPath></defs><g clip-path="url(#clip0)"><rect x="0" y="0" width="1820" height="1040" fill="#FFFFFF"/><rect x="241" y="0" width="1579" height="1049" fill="#F7F9FC"/><path d="M683.5 207.174C683.5 197.413 691.413 189.5 701.174 189.5L1774.83 189.5C1784.59 189.5 1792.5 197.413 1792.5 207.174L1792.5 669.826C1792.5 679.587 1784.59 687.5 1774.83 687.5L701.174 687.5C691.413 687.5 683.5 679.587 683.5 669.826Z" stroke="#DAE3F3" stroke-width="0.333333" stroke-miterlimit="8" fill="#FFFFFF" fill-rule="evenodd"/><path d="M683.5 67.7947C683.5 65.4228 685.423 63.5001 687.795 63.5001L1788.21 63.5001C1790.58 63.5001 1792.5 65.4228 1792.5 67.7947L1792.5 171.205C1792.5 173.577 1790.58 175.5 1788.21 175.5L687.795 175.5C685.423 175.5 683.5 173.577 683.5 171.205Z" stroke="#DAE3F3" stroke-width="0.333333" stroke-miterlimit="8" fill="#FFFFFF" fill-rule="evenodd"/><path d="M272.5 75.2671C272.5 68.7683 277.768 63.5001 284.267 63.5001L655.733 63.5001C662.232 63.5001 667.5 68.7683 667.5 75.2671L667.5 1007.73C667.5 1014.23 662.232 1019.5 655.733 1019.5L284.267 1019.5C277.768 1019.5 272.5 1014.23 272.5 1007.73Z" stroke="#DAE3F3" stroke-width="0.333333" stroke-miterlimit="8" fill="#FFFFFF" fill-rule="evenodd"/><rect x="-12.5001" y="-7.50005" width="257" height="1068" stroke="#001F3F" stroke-width="1.33333" stroke-miterlimit="8" fill="#14202D"/><text fill="#475569" font-family="Calibri,Calibri_MSFontService,sans-serif" font-weight="700" font-size="16" transform="translate(82.3298 386)">GANHOS &amp;</text><text fill="#475569" font-family="Calibri,Calibri_MSFontService,sans-serif" font-weight="700" font-size="16" transform="translate(82.3298 405)">CRESCIMENTO</text><text fill="#475569" font-family="Calibri,Calibri_MSFontService,sans-serif" font-weight="700" font-size="16" transform="translate(82.3298 475)">LOGISTICA &amp;</text><text fill="#475569" font-family="Calibri,Calibri_MSFontService,sans-serif" font-weight="700" font-size="16" transform="translate(82.3298 494)">SATISFAÇÃO</text><text fill="#475569" font-family="Calibri,Calibri_MSFontService,sans-serif" font-weight="700" font-size="16" transform="translate(82.3298 570)">CLIENTES &amp;</text><text fill="#475569" font-family="Calibri,Calibri_MSFontService,sans-serif" font-weight="700" font-size="16" transform="translate(82.3298 589)">PARTNERS</text><text fill="#BFBFBF" font-family="Calibri,Calibri_MSFontService,sans-serif" font-weight="700" font-size="16" transform="translate(82.3298 664)">FORECAST &amp;</text><text fill="#BFBFBF" font-family="Calibri,Calibri_MSFontService,sans-serif" font-weight="700" font-size="16" transform="translate(82.3298 683)">SIMULAÇÃO</text><text fill="#BFBFBF" font-family="Calibri,Calibri_MSFontService,sans-serif" font-weight="700" font-size="26.6667" transform="translate(5.07381 33)">OLIST DASHBOARDS</text><rect x="31" y="389" width="6" height="16" fill="#475569"/><rect x="38" y="385" width="6" height="20" fill="#475569"/><rect x="45" y="387" width="6" height="18" fill="#475569"/><rect x="52" y="376" width="6" height="29" fill="#475569"/><path d="M31 478C31 470.82 36.8203 465 44 465 51.1797 465 57 470.82 57 478 57 485.18 51.1797 491 44 491 36.8203 491 31 485.18 31 478Z" fill="#475569" fill-rule="evenodd"/><path d="M37 475C37 473.895 37.8954 473 39 473 40.1046 473 41 473.895 41 475 41 476.105 40.1046 477 39 477 37.8954 477 37 476.105 37 475Z" fill="#14202D" fill-rule="evenodd"/><path d="M48 475C48 473.895 48.8954 473 50 473 51.1046 473 52 473.895 52 475 52 476.105 51.1046 477 50 477 48.8954 477 48 476.105 48 475Z" fill="#14202D" fill-rule="evenodd"/><path d="M50.9999 483C50.9999 485.209 48.0898 487 44.4999 487 40.9101 487 37.9999 485.209 37.9999 483 40.6923 485.209 45.7851 485.657 49.3749 484 49.9909 483.716 50.538 483.379 50.9999 483Z" fill="#14202D" fill-rule="evenodd"/><path d="M27 568.5C27 564.358 29.6863 561 33 561 36.3137 561 39 564.358 39 568.5 39 572.642 36.3137 576 33 576 29.6863 576 27 572.642 27 568.5Z" fill="#475569" fill-rule="evenodd"/><path d="M48 568C48 564.134 50.6863 561 54 561 57.3137 561 60 564.134 60 568 60 571.866 57.3137 575 54 575 50.6863 575 48 571.866 48 568Z" fill="#475569" fill-rule="evenodd"/><path d="M24 582.951C24 579.664 26.6643 577 29.951 577L36.049 577C39.3357 577 42 579.664 42 582.951L42 597.049C42 600.336 39.3357 603 36.049 603L29.951 603C26.6643 603 24 600.336 24 597.049Z" fill="#475569" fill-rule="evenodd"/><path d="M45 582.951C45 579.664 47.6643 577 50.951 577L57.049 577C60.3357 577 63 579.664 63 582.951L63 597.049C63 600.336 60.3357 603 57.049 603L50.951 603C47.6643 603 45 600.336 45 597.049Z" fill="#475569" fill-rule="evenodd"/><rect x="10" y="588" width="55" height="22" fill="#14202D"/><path d="M0 12.6102 3.7006 0 18.503 0 14.8024 12.6102Z" fill="#BFBFBF" fill-rule="evenodd" transform="matrix(-0.557522 0.830162 0.830162 0.557522 40.7388 651.943)"/><path d="M56.8757 668.669 56.93 684.503 43.4094 687.586 43.3552 671.751Z" fill="#BFBFBF" fill-rule="evenodd"/><path d="M43 687 30 683.2 30 668 43 671.8Z" fill="#BFBFBF" fill-rule="evenodd"/><text fill="#001F3F" font-family="Calibri,Calibri_MSFontService,sans-serif" font-weight="700" font-size="16" transform="translate(395.32 84)">REDUÇÃO NO ATRASO</text><text fill="#001F3F" font-family="Calibri,Calibri_MSFontService,sans-serif" font-weight="700" font-size="16" transform="translate(885.917 84)">RECEITA PROJETADA</text><text fill="#001F3F" font-family="Calibri,Calibri_MSFontService,sans-serif" font-weight="700" font-size="16" transform="translate(1023.98 84)">PRÓXIMO</text><text fill="#001F3F" font-family="Calibri,Calibri_MSFontService,sans-serif" font-weight="700" font-size="16" transform="translate(1093.28 84)">MÊS</text><text fill="#001F3F" font-family="Calibri,Calibri_MSFontService,sans-serif" font-weight="700" font-size="16" transform="translate(1553.2 84)">GANHO PROJETADO</text><text fill="#001F3F" font-family="Calibri,Calibri_MSFontService,sans-serif" font-weight="700" font-size="16" transform="translate(1067.15 213)">HISTÓRICO DE GANHOS E PREVISÃO</text><text fill="#001F3F" font-family="Calibri,Calibri_MSFontService,sans-serif" font-weight="700" font-size="16" transform="translate(1309.7 213)">PRÓXIMO MÊS</text><path d="M683.5 712.734C683.5 705.977 688.977 700.5 695.734 700.5L1780.27 700.5C1787.02 700.5 1792.5 705.977 1792.5 712.734L1792.5 1007.27C1792.5 1014.02 1787.02 1019.5 1780.27 1019.5L695.734 1019.5C688.977 1019.5 683.5 1014.02 683.5 1007.27Z" stroke="#DAE3F3" stroke-width="0.333333" stroke-miterlimit="8" fill="#FFFFFF" fill-rule="evenodd"/><text fill="#001F3F" font-family="Calibri,Calibri_MSFontService,sans-serif" font-weight="700" font-size="16" transform="translate(1193.33 724)">CONCLUSÕES</text><rect x="0" y="0" width="152" height="2" fill="#29CB6D" transform="matrix(1 0 0 -1 41 702)"/><text fill="#001F3F" font-family="Calibri,Calibri_MSFontService,sans-serif" font-weight="700" font-size="16" transform="translate(389.077 724)">EXPANSÃO DOS SELLERS</text><text fill="#001F3F" font-family="Calibri,Calibri_MSFontService,sans-serif" font-weight="700" font-size="16" transform="translate(382.743 404)">AUMENTO NAS COMPRAS</text><text fill="#001F3F" font-family="Calibri,Calibri_MSFontService,sans-serif" font-weight="700" font-size="24" transform="translate(273.948 35)">FORECAST &amp; SIMULAÇÃO</text></g></svg>