<svg width="1820" height="1040" xmlns="http://www.w3.org/2000/svg" xmlns:xlink="http://www.w3.org/1999/xlink" overflow="hidden"><defs><clipPath id="clip0"><rect x="0" y="0" width="1820" height="1040"/></clipPath></defs><g clip-path="url(#clip0)"><rect x="0" y="0" width="1820" height="1040" fill="#FFFFFF"/><rect x="241" y="0" width="1579" height="1049" fill="#F7F9FC"/><path d="M1248.5 612.722C1248.5 603.763 1255.76 596.5 1264.72 596.5L1775.28 596.5C1784.24 596.5 1791.5 603.763 1791.5 612.722L1791.5 1003.28C1791.5 1012.24 1784.24 1019.5 1775.28 1019.5L1264.72 1019.5C1255.76 1019.5 1248.5 1012.24 1248.5 1003.28Z" stroke="#DAE3F3" stroke-width="0.333333" stroke-miterlimit="8" fill="#FFFFFF" fill-rule="evenodd"/><path d="M272.5 612.722C272.5 603.763 279.763 596.5 288.722 596.5L1080.28 596.5C1089.24 596.5 1096.5 603.763 1096.5 612.722L1096.5 1003.28C1096.5 1012.24 1089.24 1019.5 1080.28 1019.5L288.722 1019.5C279.763 1019.5 272.5 1012.24 272.5 1003.28Z" stroke="#DAE3F3" stroke-width="0.333333" stroke-miterlimit="8" fill="#FFFFFF" fill-rule="evenodd"/><path d="M1103.5 203.306C1103.5 195.681 1109.68 189.5 1117.31 189.5L1778.69 189.5C1786.32 189.5 1792.5 195.681 1792.5 203.306L1792.5 564.694C1792.5 572.319 1786.32 578.5 1778.69 578.5L1117.31 578.5C1109.68 578.5 1103.5 572.319 1103.5 564.694Z" stroke="#DAE3F3" stroke-width="0.333333" stroke-miterlimit="8" fill="#FFFFFF" fill-rule="evenodd"/><path d="M272.5 67.7955C272.5 65.4232 274.423 63.5001 276.795 63.5001L1788.2 63.5001C1790.58 63.5001 1792.5 65.4232 1792.5 67.7955L1792.5 171.205C1792.5 173.577 1790.58 175.5 1788.2 175.5L276.795 175.5C274.423 175.5 272.5 173.577 272.5 171.205Z" stroke="#DAE3F3" stroke-width="0.333333" stroke-miterlimit="8" fill="#FFFFFF" fill-rule="evenodd"/><path d="M272.5 200.089C272.5 193.688 277.688 188.5 284.089 188.5L1084.91 188.5C1091.31 188.5 1096.5 193.688 1096.5 200.089L1096.5 565.911C1096.5 572.312 1091.31 577.5 1084.91 577.5L284.089 577.5C277.688 577.5 272.5 572.312 272.5 565.911Z" stroke="#DAE3F3" stroke-width="0.333333" stroke-miterlimit="8" fill="#FFFFFF" fill-rule="evenodd"/><rect x="-8.50005" y="-6.50005" width="253" height="1067" stroke="#001F3F" stroke-width="1.33333" stroke-miterlimit="8" fill="#14202D"/><text fill="#475569" font-family="Calibri,Calibri_MSFontService,sans-serif" font-weight="700" font-size="16" transform="translate(82.3298 386)">GANHOS &amp;</text><text fill="#475569" font-family="Calibri,Calibri_MSFontService,sans-serif" font-weight="700" font-size="16" transform="translate(82.3298 405)">CRESCIMENTO</text><text fill="#D9D9D9" font-family="Calibri,Calibri_MSFontService,sans-serif" font-weight="700" font-size="16" transform="translate(82.3298 475)">LOGISTICA &amp;</text><text fill="#D9D9D9" font-family="Calibri,Calibri_MSFontService,sans-serif" font-weight="700" font-size="16" transform="translate(82.3298 494)">SATISFAÇÃO</text><text fill="#475569" font-family="Calibri,Calibri_MSFontService,sans-serif" font-weight="700" font-size="16" transform="translate(82.3298 570)">CLIENTES &amp;</text><text fill="#475569" font-family="Calibri,Calibri_MSFontService,sans-serif" font-weight="700" font-size="16" transform="translate(82.3298 589)">PARTNERS</text><text fill="#475569" font-family="Calibri,Calibri_MSFontService,sans-serif" font-weight="700" font-size="16" transform="translate(82.3298 664)">FORECAST &amp;</text><text fill="#475569" font-family="Calibri,Calibri_MSFontService,sans-serif" font-weight="700" font-size="16" transform="translate(82.3298 683)">SIMULAÇÃO</text><rect x="0" y="0" width="152" height="1" fill="#29CB6D" transform="matrix(1 0 0 -1 41 504)"/><text fill="#D9D9D9" font-family="Calibri,Calibri_MSFontService,sans-serif" font-weight="700" font-size="26.6667" transform="translate(6.87559 33)">OLIST DASHBOARDS</text><rect x="31" y="389" width="6" height="16" fill="#475569"/><rect x="38" y="385" width="6" height="20" fill="#475569"/><rect x="45" y="387" width="6" height="18" fill="#475569"/><rect x="52" y="376" width="6" height="29" fill="#475569"/><path d="M31 478C31 470.82 36.8203 465 44 465 51.1797 465 57 470.82 57 478 57 485.18 51.1797 491 44 491 36.8203 491 31 485.18 31 478Z" fill="#BFBFBF" fill-rule="evenodd"/><path d="M37 475C37 473.895 37.8954 473 39 473 40.1046 473 41 473.895 41 475 41 476.105 40.1046 477 39 477 37.8954 477 37 476.105 37 475Z" fill="#14202D" fill-rule="evenodd"/><path d="M48 475C48 473.895 48.8954 473 50 473 51.1046 473 52 473.895 52 475 52 476.105 51.1046 477 50 477 48.8954 477 48 476.105 48 475Z" fill="#14202D" fill-rule="evenodd"/><path d="M50.9999 483C50.9999 485.209 48.0898 487 44.4999 487 40.9101 487 37.9999 485.209 37.9999 483 40.6923 485.209 45.7851 485.657 49.3749 484 49.9909 483.716 50.538 483.379 50.9999 483Z" fill="#14202D" fill-rule="evenodd"/><path d="M27 568.5C27 564.358 29.6863 561 33 561 36.3137 561 39 564.358 39 568.5 39 572.642 36.3137 576 33 576 29.6863 576 27 572.642 27 568.5Z" fill="#475569" fill-rule="evenodd"/><path d="M48 568C48 564.134 50.6863 561 54 561 57.3137 561 60 564.134 60 568 60 571.866 57.3137 575 54 575 50.6863 575 48 571.866 48 568Z" fill="#475569" fill-rule="evenodd"/><path d="M24 582.951C24 579.664 26.6643 577 29.951 577L36.049 577C39.3357 577 42 579.664 42 582.951L42 597.049C42 600.336 39.3357 603 36.049 603L29.951 603C26.6643 603 24 600.336 24 597.049Z" fill="#475569" fill-rule="evenodd"/><path d="M45 582.951C45 579.664 47.6643 577 50.951 577L57.049 577C60.3357 577 63 579.664 63 582.951L63 597.049C63 600.336 60.3357 603 57.049 603L50.951 603C47.6643 603 45 600.336 45 597.049Z" fill="#475569" fill-rule="evenodd"/><rect x="10" y="588" width="55" height="22" fill="#14202D"/><text fill="#001F3F" font-family="Calibri,Calibri_MSFontService,sans-serif" font-weight="700" font-size="16" transform="translate(379.713 84)">PEDIDOS</text><text fill="#001F3F" font-family="Calibri,Calibri_MSFontService,sans-serif" font-weight="700" font-size="16" transform="translate(574.288 84)">PEDIDOS NO PRAZO</text><text fill="#001F3F" font-family="Calibri,Calibri_MSFontService,sans-serif" font-weight="700" font-size="16" transform="translate(800.854 84)">PEDIDOS ATRASADOS</text><text fill="#001F3F" font-family="Calibri,Calibri_MSFontService,sans-serif" font-weight="700" font-size="16" transform="translate(1571.54 84)">REVIEWS NEGATIVAS</text><text fill="#001F3F" font-family="Calibri,Calibri_MSFontService,sans-serif" font-weight="700" font-size="16" transform="translate(585.807 213)">CUMPRIMENTO COM PRAZOS</text><text fill="#001F3F" font-family="Calibri,Calibri_MSFontService,sans-serif" font-weight="700" font-size="16" transform="translate(1304.89 213)">CORRELAÇÃO DO ATRASO NA NOTA MÉDIA</text><text fill="#001F3F" font-family="Calibri,Calibri_MSFontService,sans-serif" font-weight="700" font-size="16" transform="translate(1397.53 621)">SELLERS DETRATORES EM LEAD TIME</text><text fill="#001F3F" font-family="Calibri,Calibri_MSFontService,sans-serif" font-weight="700" font-size="16" transform="translate(489.52 621)">DISTRIBUIÇÃO DO LEAD TIME AO LONGO DOS MÊSES</text><text fill="#001F3F" font-family="Calibri,Calibri_MSFontService,sans-serif" font-weight="700" font-size="16" transform="translate(1365.85 83)">NOTA MÉDIA</text><path d="M1103.5 601.792C1103.5 598.869 1105.87 596.5 1108.79 596.5L1236.21 596.5C1239.13 596.5 1241.5 598.869 1241.5 601.792L1241.5 1014.21C1241.5 1017.13 1239.13 1019.5 1236.21 1019.5L1108.79 1019.5C1105.87 1019.5 1103.5 1017.13 1103.5 1014.21Z" stroke="#DAE3F3" stroke-width="0.333333" stroke-miterlimit="8" fill="#FFFFFF" fill-rule="evenodd"/><text fill="#001F3F" font-family="Calibri,Calibri_MSFontService,sans-serif" font-weight="700" font-size="16" transform="translate(1117.26 621)">NOTA NO PRAZO</text><text fill="#001F3F" font-family="Calibri,Calibri_MSFontService,sans-serif" font-weight="700" font-size="16" transform="translate(1115.95 765)">NOTA ATRASADO</text><text fill="#001F3F" font-family="Calibri,Calibri_MSFontService,sans-serif" font-weight="700" font-size="16" transform="translate(1141.89 906)">IMPACTO</text><text fill="#001F3F" font-family="Calibri,Calibri_MSFontService,sans-serif" font-weight="700" font-size="16" transform="translate(1035.44 84)">LEAD TIME COMPRA</text><text fill="#001F3F" font-family="Calibri,Calibri_MSFontService,sans-serif" font-weight="700" font-size="16" transform="translate(1175.3 84)">-</text><text fill="#001F3F" font-family="Calibri,Calibri_MSFontService,sans-serif" font-weight="700" font-size="16" transform="translate(1183.8 84)">ENTREGA</text><path d="M0 12.6102 3.7006 0 18.503 0 14.8024 12.6102Z" fill="#475569" fill-rule="evenodd" transform="matrix(-0.557522 0.830162 0.830162 0.557522 40.7388 651.943)"/><path d="M56.8757 668.669 56.93 684.503 43.4094 687.586 43.3552 671.751Z" fill="#475569" fill-rule="evenodd"/><path d="M43 687 30 683.2 30 668 43 671.8Z" fill="#475569" fill-rule="evenodd"/><text fill="#001F3F" font-family="Calibri,Calibri_MSFontService,sans-serif" font-weight="700" font-size="24" transform="translate(273.948 35)">LOGISTICA &amp; SATISFAÇÃO</text></g></svg>