<svg width="1820" height="1040" xmlns="http://www.w3.org/2000/svg" xmlns:xlink="http://www.w3.org/1999/xlink" overflow="hidden"><defs><clipPath id="clip0"><rect x="0" y="0" width="1820" height="1040"/></clipPath></defs><g clip-path="url(#clip0)"><rect x="0" y="0" width="1820" height="1040" fill="#FFFFFF"/><rect x="241" y="0" width="1579" height="1049" fill="#F7F9FC"/><rect x="0" y="0" width="1576" height="49" fill="#FFFFFF" transform="matrix(1 0 0 -1 244 49)"/><path d="M1351.5 809.86C1351.5 805.243 1355.24 801.5 1359.86 801.5L1783.14 801.5C1787.76 801.5 1791.5 805.243 1791.5 809.86L1791.5 1011.14C1791.5 1015.76 1787.76 1019.5 1783.14 1019.5L1359.86 1019.5C1355.24 1019.5 1351.5 1015.76 1351.5 1011.14Z" stroke="#DAE3F3" stroke-width="0.333333" stroke-miterlimit="8" fill="#FFFFFF" fill-rule="evenodd"/><path d="M272.5 756.97C272.5 751.187 277.187 746.5 282.97 746.5L1323.03 746.5C1328.81 746.5 1333.5 751.187 1333.5 756.97L1333.5 1009.03C1333.5 1014.81 1328.81 1019.5 1323.03 1019.5L282.97 1019.5C277.187 1019.5 272.5 1014.81 272.5 1009.03Z" stroke="#DAE3F3" stroke-width="0.333333" stroke-miterlimit="8" fill="#FFFFFF" fill-rule="evenodd"/><path d="M1350.5 201.283C1350.5 194.775 1355.78 189.5 1362.28 189.5L1780.72 189.5C1787.22 189.5 1792.5 194.775 1792.5 201.283L1792.5 509.717C1792.5 516.225 1787.22 521.5 1780.72 521.5L1362.28 521.5C1355.78 521.5 1350.5 516.225 1350.5 509.717Z" stroke="#DAE3F3" stroke-width="0.333333" stroke-miterlimit="8" fill="#FFFFFF" fill-rule="evenodd"/><path d="M1351.5 546.049C1351.5 540.775 1355.78 536.5 1361.05 536.5L1782.95 536.5C1788.22 536.5 1792.5 540.775 1792.5 546.049L1792.5 775.951C1792.5 781.225 1788.22 785.5 1782.95 785.5L1361.05 785.5C1355.78 785.5 1351.5 781.225 1351.5 775.951Z" stroke="#DAE3F3" stroke-width="0.333333" stroke-miterlimit="8" fill="#FFFFFF" fill-rule="evenodd"/><path d="M274.5 543.978C274.5 539.848 277.848 536.5 281.978 536.5L1325.02 536.5C1329.15 536.5 1332.5 539.848 1332.5 543.978L1332.5 724.022C1332.5 728.152 1329.15 731.5 1325.02 731.5L281.978 731.5C277.848 731.5 274.5 728.152 274.5 724.022Z" stroke="#DAE3F3" stroke-width="0.333333" stroke-miterlimit="8" fill="#FFFFFF" fill-rule="evenodd"/><path d="M272.5 67.7955C272.5 65.4232 274.423 63.5001 276.795 63.5001L1788.2 63.5001C1790.58 63.5001 1792.5 65.4232 1792.5 67.7955L1792.5 171.205C1792.5 173.577 1790.58 175.5 1788.2 175.5L276.795 175.5C274.423 175.5 272.5 173.577 272.5 171.205Z" stroke="#DAE3F3" stroke-width="0.333333" stroke-miterlimit="8" fill="#FFFFFF" fill-rule="evenodd"/><path d="M272.5 198.42C272.5 192.941 276.941 188.5 282.42 188.5L1323.58 188.5C1329.06 188.5 1333.5 192.941 1333.5 198.42L1333.5 511.58C1333.5 517.059 1329.06 521.5 1323.58 521.5L282.42 521.5C276.941 521.5 272.5 517.059 272.5 511.58Z" stroke="#DAE3F3" stroke-width="0.333333" stroke-miterlimit="8" fill="#FFFFFF" fill-rule="evenodd"/><rect x="-9.50005" y="-9.50005" width="254" height="1050" stroke="#001F3F" stroke-width="1.33333" stroke-miterlimit="8" fill="#E3E9ED"/><rect x="-9.50005" y="1027.5" width="254" height="33" stroke="#001F3F" stroke-width="1.33333" stroke-miterlimit="8" fill="#001F3F"/><text fill="#001F3F" font-family="Calibri,Calibri_MSFontService,sans-serif" font-weight="700" font-size="16" transform="translate(82.3298 386)">GANHOS &amp;</text><text fill="#001F3F" font-family="Calibri,Calibri_MSFontService,sans-serif" font-weight="700" font-size="16" transform="translate(82.3298 405)">CRESCIMENTO</text><text fill="#475569" font-family="Calibri,Calibri_MSFontService,sans-serif" font-weight="700" font-size="16" transform="translate(82.3298 475)">LOGISTICA &amp;</text><text fill="#475569" font-family="Calibri,Calibri_MSFontService,sans-serif" font-weight="700" font-size="16" transform="translate(82.3298 494)">SATISFAÇÃO</text><text fill="#475569" font-family="Calibri,Calibri_MSFontService,sans-serif" font-weight="700" font-size="16" transform="translate(82.3298 570)">CLIENTES &amp;</text><text fill="#475569" font-family="Calibri,Calibri_MSFontService,sans-serif" font-weight="700" font-size="16" transform="translate(82.3298 589)">PARTNERS</text><text fill="#475569" font-family="Calibri,Calibri_MSFontService,sans-serif" font-weight="700" font-size="16" transform="translate(82.3298 664)">FORECAST &amp;</text><text fill="#475569" font-family="Calibri,Calibri_MSFontService,sans-serif" font-weight="700" font-size="16" transform="translate(82.3298 683)">SIMULAÇÃO</text><rect x="0" y="0" width="152" height="2" fill="#29CB6D" transform="matrix(1 0 0 -1 41 419)"/><text fill="#001F3F" font-family="Calibri,Calibri_MSFontService,sans-serif" font-weight="700" font-size="26.6667" transform="translate(6.9747 33)">OLIST DASHBOARDS</text><text fill="#001F3F" font-family="Calibri,Calibri_MSFontService,sans-serif" font-weight="700" font-size="24" transform="translate(284.948 31)">GANHOS &amp; CRESCIMENTO</text><rect x="31" y="389" width="6" height="16" fill="#001F3F"/><rect x="38" y="385" width="6" height="20" fill="#001F3F"/><rect x="45" y="387" width="6" height="18" fill="#001F3F"/><rect x="52" y="376" width="6" height="29" fill="#001F3F"/><path d="M31 478C31 470.82 36.8203 465 44 465 51.1797 465 57 470.82 57 478 57 485.18 51.1797 491 44 491 36.8203 491 31 485.18 31 478Z" fill="#475569" fill-rule="evenodd"/><path d="M37 475C37 473.895 37.8954 473 39 473 40.1046 473 41 473.895 41 475 41 476.105 40.1046 477 39 477 37.8954 477 37 476.105 37 475Z" fill="#ECF0F3" fill-rule="evenodd"/><path d="M48 475C48 473.895 48.8954 473 50 473 51.1046 473 52 473.895 52 475 52 476.105 51.1046 477 50 477 48.8954 477 48 476.105 48 475Z" fill="#ECF0F3" fill-rule="evenodd"/><path d="M50.9999 483C50.9999 485.209 48.0898 487 44.4999 487 40.9101 487 37.9999 485.209 37.9999 483 40.6923 485.209 45.7851 485.657 49.3749 484 49.9909 483.716 50.538 483.379 50.9999 483Z" fill="#ECF0F3" fill-rule="evenodd"/><path d="M27 568.5C27 564.358 29.6863 561 33 561 36.3137 561 39 564.358 39 568.5 39 572.642 36.3137 576 33 576 29.6863 576 27 572.642 27 568.5Z" fill="#475569" fill-rule="evenodd"/><path d="M48 568C48 564.134 50.6863 561 54 561 57.3137 561 60 564.134 60 568 60 571.866 57.3137 575 54 575 50.6863 575 48 571.866 48 568Z" fill="#475569" fill-rule="evenodd"/><path d="M24 582.951C24 579.664 26.6643 577 29.951 577L36.049 577C39.3357 577 42 579.664 42 582.951L42 597.049C42 600.336 39.3357 603 36.049 603L29.951 603C26.6643 603 24 600.336 24 597.049Z" fill="#475569" fill-rule="evenodd"/><path d="M45 582.951C45 579.664 47.6643 577 50.951 577L57.049 577C60.3357 577 63 579.664 63 582.951L63 597.049C63 600.336 60.3357 603 57.049 603L50.951 603C47.6643 603 45 600.336 45 597.049Z" fill="#475569" fill-rule="evenodd"/><rect x="10" y="588" width="55" height="22" fill="#E3E9ED"/><path d="M0 12.2269 3.7006 0 18.503 0 14.8024 12.2269Z" fill="#475569" fill-rule="evenodd" transform="matrix(-0.596062 0.802939 0.802939 0.596062 41.8299 652.424)"/><path d="M57.0723 668.813 56.795 684.645 43.2128 687.444 43.4902 671.612Z" fill="#475569" fill-rule="evenodd"/><path d="M43 687 30 683.2 30 668 43 671.8Z" fill="#475569" fill-rule="evenodd"/><text fill="#001F3F" font-family="Calibri,Calibri_MSFontService,sans-serif" font-weight="700" font-size="16" transform="translate(378.333 84)">RECEITA PRODUTOS</text><text fill="#001F3F" font-family="Calibri,Calibri_MSFontService,sans-serif" font-weight="700" font-size="16" transform="translate(805.253 84)">PEDIDOS</text><text fill="#001F3F" font-family="Calibri,Calibri_MSFontService,sans-serif" font-weight="700" font-size="16" transform="translate(1177.29 84)">TICKET MÉDIO</text><text fill="#001F3F" font-family="Calibri,Calibri_MSFontService,sans-serif" font-weight="700" font-size="16" transform="translate(1544.24 84)">RECEITA ULTIMO MÊS</text><text fill="#001F3F" font-family="Calibri,Calibri_MSFontService,sans-serif" font-weight="700" font-size="16" transform="translate(603.87 213)">RECEITA PRODUTOS E TICKET MÉDIO AO LONGO DO TEMPO</text><text fill="#001F3F" font-family="Calibri,Calibri_MSFontService,sans-serif" font-weight="700" font-size="16" transform="translate(1416.01 213)">RECEITA PRODUTOS PELA CIDADE DE ENTREGA</text><text fill="#001F3F" font-family="Calibri,Calibri_MSFontService,sans-serif" font-weight="700" font-size="16" transform="translate(1395.95 560)">RECEITA PRODUTOS PELAS FORMAS DE PAGAMENTO</text><text fill="#001F3F" font-family="Calibri,Calibri_MSFontService,sans-serif" font-weight="700" font-size="16" transform="translate(1405.93 820)">PARCELAS MÉDIAS NAS FORMAS DE PAGAMENTO</text><text fill="#001F3F" font-family="Calibri,Calibri_MSFontService,sans-serif" font-weight="700" font-size="16" transform="translate(697.333 560)">PEDIDOS AO LONGO DO TEMPO</text><text fill="#001F3F" font-family="Calibri,Calibri_MSFontService,sans-serif" font-weight="700" font-size="16" transform="translate(643.066 770)">MÉDIA DE RECEITA E TICKET MÉDIO POR MÊSES</text></g></svg>